ffmpeg started on 2025-05-28 at 10:27:52
Report written to "D:\Convert\FFMetrics\reports\ssim_report-6.txt"
Log level: 32
Command line:
ffmpeg -hide_banner -nostdin -i "G:\\\xc0\xed\xe8\xec\xe5\\\xce\xed\xe3\xee\xe8\xed\xe3\xe8\\!_36_\xce\xf1\xe5\xed\xfc_2024\\JamClub\\MF \xcf\xf0\xe8\xe7\xf0\xe0\xea\\\xd2\xc2-1\\[JAMCLUB] MF Ghost - 06 (1080p)_HEVC.mkv" -i "G:\\\xc0\xed\xe8\xec\xe5\\\xce\xed\xe3\xee\xe8\xed\xe3\xe8\\!_36_\xce\xf1\xe5\xed\xfc_2024\\JamClub\\MF \xcf\xf0\xe8\xe7\xf0\xe0\xea\\\xd2\xc2-1\\[JAMCLUB] MF Ghost - 06 (1080p).mp4" -lavfi "[0:v]settb=AVTB,setpts=PTS-STARTPTS,format=pix_fmts=yuv420p10,fps=24000/1001,scale=1920:1080:flags=bicubic[main];[1:v]settb=AVTB,setpts=PTS-STARTPTS,format=pix_fmts=yuv420p,fps=24000/1001,scale=1920:1080:flags=bicubic[ref];[main][ref]ssim=eof_action=endall:stats_file='D\\:/Convert/FFMetrics/logs/ssim_logfile-6.txt'" -f null -
Input #0, matroska,webm, from 'G:\Аниме\Онгоинги\!_36_Осень_2024\JamClub\MF Призрак\ТВ-1\[JAMCLUB] MF Ghost - 06 (1080p)_HEVC.mkv':
  Metadata:
    COMPATIBLE_BRANDS: isomiso2avc1mp41
    MAJOR_BRAND     : isom
    MINOR_VERSION   : 512
    ENCODER         : Lavf61.7.100
  Duration: 00:24:02.33, start: -0.021000, bitrate: 2514 kb/s
  Stream #0:0: Video: hevc (Main 10), yuv420p10le(tv, bt709, progressive), 1920x1080 [SAR 1:1 DAR 16:9], 23.98 fps, 23.98 tbr, 1k tbn (default)
      Metadata:
        HANDLER_NAME    : VideoHandler
        VENDOR_ID       : [0][0][0][0]
        ENCODER         : Lavc61.19.100 libx265
        BPS             : 2313385
        DURATION        : 00:24:02.190708333
        NUMBER_OF_FRAMES: 34578
        NUMBER_OF_BYTES : 417042753
        _STATISTICS_WRITING_APP: mkvpropedit v66.0.0 ('Josie') 64-bit
        _STATISTICS_WRITING_DATE_UTC: 2025-05-27 08:53:56
        _STATISTICS_TAGS: BPS DURATION NUMBER_OF_FRAMES NUMBER_OF_BYTES
  Stream #0:1: Audio: aac (LC), 48000 Hz, stereo, fltp (default)
      Metadata:
        HANDLER_NAME    : SoundHandler
        VENDOR_ID       : [0][0][0][0]
        ENCODER         : Lavc61.19.100 aac
        BPS             : 196734
        DURATION        : 00:24:02.304000000
        NUMBER_OF_FRAMES: 67609
        NUMBER_OF_BYTES : 35468914
        _STATISTICS_WRITING_APP: mkvpropedit v66.0.0 ('Josie') 64-bit
        _STATISTICS_WRITING_DATE_UTC: 2025-05-27 08:53:56
        _STATISTICS_TAGS: BPS DURATION NUMBER_OF_FRAMES NUMBER_OF_BYTES
Input #1, mov,mp4,m4a,3gp,3g2,mj2, from 'G:\Аниме\Онгоинги\!_36_Осень_2024\JamClub\MF Призрак\ТВ-1\[JAMCLUB] MF Ghost - 06 (1080p).mp4':
  Metadata:
    major_brand     : isom
    minor_version   : 512
    compatible_brands: isomiso2avc1mp41
    encoder         : Lavf60.10.100
  Duration: 00:24:02.30, start: 0.000000, bitrate: 5214 kb/s
  Stream #1:0[0x1](und): Video: h264 (High) (avc1 / 0x31637661), yuv420p(tv, bt709, progressive), 1920x1080 [SAR 1:1 DAR 16:9], 4953 kb/s, 23.98 fps, 23.98 tbr, 24k tbn (default)
      Metadata:
        handler_name    : VideoHandler
        vendor_id       : [0][0][0][0]
        encoder         : Lavc60.23.100 h264_nvenc
  Stream #1:1[0x2](und): Audio: aac (LC) (mp4a / 0x6134706D), 48000 Hz, stereo, fltp, 256 kb/s (default)
      Metadata:
        handler_name    : SoundHandler
        vendor_id       : [0][0][0][0]
Stream mapping:
  Stream #0:0 (hevc) -> settb:default
  Stream #1:0 (h264) -> settb:default
  ssim:default -> Stream #0:0 (wrapped_avframe)
  Stream #0:1 -> #0:1 (aac (native) -> pcm_s16le (native))
Output #0, null, to 'pipe:':
  Metadata:
    COMPATIBLE_BRANDS: isomiso2avc1mp41
    MAJOR_BRAND     : isom
    MINOR_VERSION   : 512
    encoder         : Lavf61.7.100
  Stream #0:0: Video: wrapped_avframe, yuv420p10le(tv, bt709, progressive), 1920x1080 [SAR 1:1 DAR 16:9], q=2-31, 200 kb/s, 23.98 fps, 23.98 tbn
      Metadata:
        encoder         : Lavc61.19.100 wrapped_avframe
  Stream #0:1: Audio: pcm_s16le, 48000 Hz, stereo, s16, 1536 kb/s (default)
      Metadata:
        HANDLER_NAME    : SoundHandler
        VENDOR_ID       : [0][0][0][0]
        _STATISTICS_TAGS: BPS DURATION NUMBER_OF_FRAMES NUMBER_OF_BYTES
        BPS             : 196734
        DURATION        : 00:24:02.304000000
        NUMBER_OF_FRAMES: 67609
        NUMBER_OF_BYTES : 35468914
        _STATISTICS_WRITING_APP: mkvpropedit v66.0.0 ('Josie') 64-bit
        _STATISTICS_WRITING_DATE_UTC: 2025-05-27 08:53:56
        encoder         : Lavc61.19.100 pcm_s16le
frame=  124 fps=0.0 q=-0.0 size=N/A time=00:00:05.17 bitrate=N/A speed=9.92x    frame=  295 fps=287 q=-0.0 size=N/A time=00:00:12.30 bitrate=N/A speed=  12x    frame=  527 fps=339 q=-0.0 size=N/A time=00:00:21.98 bitrate=N/A speed=14.2x    frame=  740 fps=359 q=-0.0 size=N/A time=00:00:30.86 bitrate=N/A speed=  15x    frame=  949 fps=369 q=-0.0 size=N/A time=00:00:39.58 bitrate=N/A speed=15.4x    frame= 1202 fps=388 q=-0.0 size=N/A time=00:00:50.13 bitrate=N/A speed=16.2x    frame= 1333 fps=369 q=-0.0 size=N/A time=00:00:55.59 bitrate=N/A speed=15.4x    frame= 1466 fps=355 q=-0.0 size=N/A time=00:01:01.14 bitrate=N/A speed=14.8x    frame= 1673 fps=360 q=-0.0 size=N/A time=00:01:09.77 bitrate=N/A speed=  15x    frame= 1853 fps=358 q=-0.0 size=N/A time=00:01:17.28 bitrate=N/A speed=14.9x    frame= 2013 fps=354 q=-0.0 size=N/A time=00:01:23.95 bitrate=N/A speed=14.8x    frame= 2139 fps=345 q=-0.0 size=N/A time=00:01:29.21 bitrate=N/A speed=14.4x    frame= 2326 fps=346 q=-0.0 size=N/A time=00:01:37.01 bitrate=N/A speed=14.4x    frame= 2500 fps=346 q=-0.0 size=N/A time=00:01:44.27 bitrate=N/A speed=14.4x    frame= 2650 fps=342 q=-0.0 size=N/A time=00:01:50.52 bitrate=N/A speed=14.3x    frame= 2803 fps=339 q=-0.0 size=N/A time=00:01:56.90 bitrate=N/A speed=14.1x    frame= 2950 fps=336 q=-0.0 size=N/A time=00:02:03.03 bitrate=N/A speed=  14x    frame= 3108 fps=334 q=-0.0 size=N/A time=00:02:09.62 bitrate=N/A speed=13.9x    frame= 3264 fps=332 q=-0.0 size=N/A time=00:02:16.13 bitrate=N/A speed=13.9x    frame= 3439 fps=333 q=-0.0 size=N/A time=00:02:23.43 bitrate=N/A speed=13.9x    frame= 3674 fps=339 q=-0.0 size=N/A time=00:02:33.23 bitrate=N/A speed=14.1x    frame= 3903 fps=344 q=-0.0 size=N/A time=00:02:42.78 bitrate=N/A speed=14.3x    frame= 4119 fps=347 q=-0.0 size=N/A time=00:02:51.79 bitrate=N/A speed=14.5x    frame= 4342 fps=351 q=-0.0 size=N/A time=00:03:01.09 bitrate=N/A speed=14.6x    frame= 4565 fps=354 q=-0.0 size=N/A time=00:03:10.39 bitrate=N/A speed=14.7x    frame= 4794 fps=357 q=-0.0 size=N/A time=00:03:19.94 bitrate=N/A speed=14.9x    frame= 5009 fps=359 q=-0.0 size=N/A time=00:03:28.91 bitrate=N/A speed=  15x    frame= 5272 fps=365 q=-0.0 size=N/A time=00:03:39.88 bitrate=N/A speed=15.2x    frame= 5547 fps=371 q=-0.0 size=N/A time=00:03:51.35 bitrate=N/A speed=15.5x    frame= 5801 fps=374 q=-0.0 size=N/A time=00:04:01.95 bitrate=N/A speed=15.6x    frame= 6007 fps=375 q=-0.0 size=N/A time=00:04:10.54 bitrate=N/A speed=15.7x    frame= 6216 fps=376 q=-0.0 size=N/A time=00:04:19.25 bitrate=N/A speed=15.7x    frame= 6421 fps=377 q=-0.0 size=N/A time=00:04:27.80 bitrate=N/A speed=15.7x    frame= 6687 fps=381 q=-0.0 size=N/A time=00:04:38.90 bitrate=N/A speed=15.9x    frame= 6915 fps=383 q=-0.0 size=N/A time=00:04:48.41 bitrate=N/A speed=  16x    frame= 7135 fps=384 q=-0.0 size=N/A time=00:04:57.58 bitrate=N/A speed=  16x    frame= 7366 fps=386 q=-0.0 size=N/A time=00:05:07.22 bitrate=N/A speed=16.1x    frame= 7597 fps=387 q=-0.0 size=N/A time=00:05:16.85 bitrate=N/A speed=16.2x    frame= 7793 fps=387 q=-0.0 size=N/A time=00:05:25.03 bitrate=N/A speed=16.2x    frame= 8012 fps=388 q=-0.0 size=N/A time=00:05:34.16 bitrate=N/A speed=16.2x    frame= 8220 fps=389 q=-0.0 size=N/A time=00:05:42.84 bitrate=N/A speed=16.2x    frame= 8441 fps=389 q=-0.0 size=N/A time=00:05:52.06 bitrate=N/A speed=16.2x    frame= 8643 fps=390 q=-0.0 size=N/A time=00:06:00.48 bitrate=N/A speed=16.2x    frame= 8848 fps=390 q=-0.0 size=N/A time=00:06:09.03 bitrate=N/A speed=16.3x    frame= 9072 fps=391 q=-0.0 size=N/A time=00:06:18.37 bitrate=N/A speed=16.3x    frame= 9269 fps=391 q=-0.0 size=N/A time=00:06:26.59 bitrate=N/A speed=16.3x    frame= 9444 fps=389 q=-0.0 size=N/A time=00:06:33.89 bitrate=N/A speed=16.2x    frame= 9636 fps=389 q=-0.0 size=N/A time=00:06:41.90 bitrate=N/A speed=16.2x    frame= 9806 fps=388 q=-0.0 size=N/A time=00:06:48.99 bitrate=N/A speed=16.2x    frame=10015 fps=388 q=-0.0 size=N/A time=00:06:57.70 bitrate=N/A speed=16.2x    frame=10189 fps=387 q=-0.0 size=N/A time=00:07:04.96 bitrate=N/A speed=16.2x    frame=10404 fps=388 q=-0.0 size=N/A time=00:07:13.93 bitrate=N/A speed=16.2x    frame=10609 fps=388 q=-0.0 size=N/A time=00:07:22.48 bitrate=N/A speed=16.2x    frame=10811 fps=388 q=-0.0 size=N/A time=00:07:30.90 bitrate=N/A speed=16.2x    frame=11030 fps=389 q=-0.0 size=N/A time=00:07:40.04 bitrate=N/A speed=16.2x    frame=11213 fps=388 q=-0.0 size=N/A time=00:07:47.67 bitrate=N/A speed=16.2x    frame=11448 fps=389 q=-0.0 size=N/A time=00:07:57.47 bitrate=N/A speed=16.2x    frame=11654 fps=390 q=-0.0 size=N/A time=00:08:06.06 bitrate=N/A speed=16.2x    frame=11907 fps=391 q=-0.0 size=N/A time=00:08:16.62 bitrate=N/A speed=16.3x    frame=12164 fps=393 q=-0.0 size=N/A time=00:08:27.34 bitrate=N/A speed=16.4x    frame=12385 fps=394 q=-0.0 size=N/A time=00:08:36.55 bitrate=N/A speed=16.4x    frame=12601 fps=394 q=-0.0 size=N/A time=00:08:45.56 bitrate=N/A speed=16.4x    frame=12891 fps=397 q=-0.0 size=N/A time=00:08:57.66 bitrate=N/A speed=16.5x    frame=13162 fps=399 q=-0.0 size=N/A time=00:09:08.96 bitrate=N/A speed=16.6x    frame=13428 fps=401 q=-0.0 size=N/A time=00:09:20.05 bitrate=N/A speed=16.7x    frame=13683 fps=402 q=-0.0 size=N/A time=00:09:30.69 bitrate=N/A speed=16.8x    frame=13879 fps=402 q=-0.0 size=N/A time=00:09:38.86 bitrate=N/A speed=16.8x    frame=14089 fps=402 q=-0.0 size=N/A time=00:09:47.62 bitrate=N/A speed=16.8x    frame=14305 fps=402 q=-0.0 size=N/A time=00:09:56.63 bitrate=N/A speed=16.8x    frame=14561 fps=403 q=-0.0 size=N/A time=00:10:07.31 bitrate=N/A speed=16.8x    frame=14775 fps=403 q=-0.0 size=N/A time=00:10:16.24 bitrate=N/A speed=16.8x    frame=14982 fps=403 q=-0.0 size=N/A time=00:10:24.87 bitrate=N/A speed=16.8x    frame=15226 fps=404 q=-0.0 size=N/A time=00:10:35.05 bitrate=N/A speed=16.9x    frame=15498 fps=406 q=-0.0 size=N/A time=00:10:46.39 bitrate=N/A speed=16.9x    frame=15764 fps=407 q=-0.0 size=N/A time=00:10:57.49 bitrate=N/A speed=  17x    frame=15979 fps=407 q=-0.0 size=N/A time=00:11:06.45 bitrate=N/A speed=  17x    frame=16179 fps=407 q=-0.0 size=N/A time=00:11:14.79 bitrate=N/A speed=  17x    frame=16398 fps=407 q=-0.0 size=N/A time=00:11:23.93 bitrate=N/A speed=  17x    frame=16673 fps=409 q=-0.0 size=N/A time=00:11:35.40 bitrate=N/A speed=  17x    frame=16957 fps=411 q=-0.0 size=N/A time=00:11:47.24 bitrate=N/A speed=17.1x    frame=17158 fps=410 q=-0.0 size=N/A time=00:11:55.63 bitrate=N/A speed=17.1x    frame=17394 fps=411 q=-0.0 size=N/A time=00:12:05.47 bitrate=N/A speed=17.1x    frame=17602 fps=411 q=-0.0 size=N/A time=00:12:14.15 bitrate=N/A speed=17.1x    frame=17808 fps=411 q=-0.0 size=N/A time=00:12:22.74 bitrate=N/A speed=17.1x    frame=17991 fps=410 q=-0.0 size=N/A time=00:12:30.37 bitrate=N/A speed=17.1x    frame=18197 fps=410 q=-0.0 size=N/A time=00:12:38.96 bitrate=N/A speed=17.1x    frame=18370 fps=409 q=-0.0 size=N/A time=00:12:46.18 bitrate=N/A speed=17.1x    frame=18587 fps=409 q=-0.0 size=N/A time=00:12:55.23 bitrate=N/A speed=17.1x    frame=18795 fps=409 q=-0.0 size=N/A time=00:13:03.90 bitrate=N/A speed=17.1x    frame=19033 fps=410 q=-0.0 size=N/A time=00:13:13.83 bitrate=N/A speed=17.1x    frame=19260 fps=410 q=-0.0 size=N/A time=00:13:23.30 bitrate=N/A speed=17.1x    frame=19474 fps=410 q=-0.0 size=N/A time=00:13:32.22 bitrate=N/A speed=17.1x    frame=19683 fps=410 q=-0.0 size=N/A time=00:13:40.94 bitrate=N/A speed=17.1x    frame=19955 fps=411 q=-0.0 size=N/A time=00:13:52.28 bitrate=N/A speed=17.2x    frame=20202 fps=412 q=-0.0 size=N/A time=00:14:02.59 bitrate=N/A speed=17.2x    frame=20476 fps=413 q=-0.0 size=N/A time=00:14:14.01 bitrate=N/A speed=17.2x    frame=20732 fps=414 q=-0.0 size=N/A time=00:14:24.69 bitrate=N/A speed=17.3x    frame=20983 fps=415 q=-0.0 size=N/A time=00:14:35.16 bitrate=N/A speed=17.3x    frame=21214 fps=415 q=-0.0 size=N/A time=00:14:44.80 bitrate=N/A speed=17.3x    frame=21442 fps=415 q=-0.0 size=N/A time=00:14:54.31 bitrate=N/A speed=17.3x    frame=21610 fps=415 q=-0.0 size=N/A time=00:15:01.31 bitrate=N/A speed=17.3x    frame=21844 fps=415 q=-0.0 size=N/A time=00:15:11.07 bitrate=N/A speed=17.3x    frame=22008 fps=414 q=-0.0 size=N/A time=00:15:17.91 bitrate=N/A speed=17.3x    frame=22177 fps=413 q=-0.0 size=N/A time=00:15:24.96 bitrate=N/A speed=17.2x    frame=22351 fps=412 q=-0.0 size=N/A time=00:15:32.22 bitrate=N/A speed=17.2x    frame=22563 fps=412 q=-0.0 size=N/A time=00:15:41.06 bitrate=N/A speed=17.2x    frame=22753 fps=412 q=-0.0 size=N/A time=00:15:48.98 bitrate=N/A speed=17.2x    frame=22944 fps=412 q=-0.0 size=N/A time=00:15:56.95 bitrate=N/A speed=17.2x    frame=23117 fps=411 q=-0.0 size=N/A time=00:16:04.17 bitrate=N/A speed=17.1x    frame=23281 fps=410 q=-0.0 size=N/A time=00:16:11.01 bitrate=N/A speed=17.1x    frame=23503 fps=410 q=-0.0 size=N/A time=00:16:20.27 bitrate=N/A speed=17.1x    frame=23682 fps=410 q=-0.0 size=N/A time=00:16:27.73 bitrate=N/A speed=17.1x    frame=23913 fps=410 q=-0.0 size=N/A time=00:16:37.37 bitrate=N/A speed=17.1x    frame=24156 fps=410 q=-0.0 size=N/A time=00:16:47.50 bitrate=N/A speed=17.1x    frame=24359 fps=410 q=-0.0 size=N/A time=00:16:55.97 bitrate=N/A speed=17.1x    frame=24564 fps=410 q=-0.0 size=N/A time=00:17:04.52 bitrate=N/A speed=17.1x    frame=24751 fps=410 q=-0.0 size=N/A time=00:17:12.32 bitrate=N/A speed=17.1x    frame=24935 fps=409 q=-0.0 size=N/A time=00:17:19.99 bitrate=N/A speed=17.1x    frame=25107 fps=409 q=-0.0 size=N/A time=00:17:27.17 bitrate=N/A speed=  17x    frame=25277 fps=408 q=-0.0 size=N/A time=00:17:34.26 bitrate=N/A speed=  17x    frame=25445 fps=407 q=-0.0 size=N/A time=00:17:41.26 bitrate=N/A speed=  17x    frame=25623 fps=407 q=-0.0 size=N/A time=00:17:48.69 bitrate=N/A speed=  17x    frame=25808 fps=406 q=-0.0 size=N/A time=00:17:56.40 bitrate=N/A speed=16.9x    frame=26035 fps=407 q=-0.0 size=N/A time=00:18:05.87 bitrate=N/A speed=  17x    frame=26240 fps=407 q=-0.0 size=N/A time=00:18:14.42 bitrate=N/A speed=  17x    frame=26442 fps=407 q=-0.0 size=N/A time=00:18:22.85 bitrate=N/A speed=  17x    frame=26652 fps=406 q=-0.0 size=N/A time=00:18:31.61 bitrate=N/A speed=  17x    frame=26817 fps=406 q=-0.0 size=N/A time=00:18:38.49 bitrate=N/A speed=16.9x    frame=26984 fps=405 q=-0.0 size=N/A time=00:18:45.45 bitrate=N/A speed=16.9x    frame=27135 fps=404 q=-0.0 size=N/A time=00:18:51.75 bitrate=N/A speed=16.9x    frame=27372 fps=405 q=-0.0 size=N/A time=00:19:01.64 bitrate=N/A speed=16.9x    frame=27578 fps=405 q=-0.0 size=N/A time=00:19:10.23 bitrate=N/A speed=16.9x    frame=27781 fps=405 q=-0.0 size=N/A time=00:19:18.69 bitrate=N/A speed=16.9x    frame=28017 fps=405 q=-0.0 size=N/A time=00:19:28.54 bitrate=N/A speed=16.9x    frame=28200 fps=405 q=-0.0 size=N/A time=00:19:36.17 bitrate=N/A speed=16.9x    frame=28411 fps=405 q=-0.0 size=N/A time=00:19:44.97 bitrate=N/A speed=16.9x    frame=28563 fps=404 q=-0.0 size=N/A time=00:19:51.31 bitrate=N/A speed=16.8x    frame=28765 fps=404 q=-0.0 size=N/A time=00:19:59.74 bitrate=N/A speed=16.8x    frame=29007 fps=404 q=-0.0 size=N/A time=00:20:09.83 bitrate=N/A speed=16.9x    frame=29256 fps=405 q=-0.0 size=N/A time=00:20:20.21 bitrate=N/A speed=16.9x    frame=29498 fps=405 q=-0.0 size=N/A time=00:20:30.31 bitrate=N/A speed=16.9x    frame=29718 fps=405 q=-0.0 size=N/A time=00:20:39.48 bitrate=N/A speed=16.9x    frame=29960 fps=406 q=-0.0 size=N/A time=00:20:49.58 bitrate=N/A speed=16.9x    frame=30141 fps=405 q=-0.0 size=N/A time=00:20:57.13 bitrate=N/A speed=16.9x    frame=30344 fps=405 q=-0.0 size=N/A time=00:21:05.59 bitrate=N/A speed=16.9x    frame=30581 fps=406 q=-0.0 size=N/A time=00:21:15.48 bitrate=N/A speed=16.9x    frame=30817 fps=406 q=-0.0 size=N/A time=00:21:25.32 bitrate=N/A speed=16.9x    frame=31030 fps=406 q=-0.0 size=N/A time=00:21:34.20 bitrate=N/A speed=16.9x    frame=31259 fps=406 q=-0.0 size=N/A time=00:21:43.76 bitrate=N/A speed=  17x    frame=31508 fps=407 q=-0.0 size=N/A time=00:21:54.18 bitrate=N/A speed=  17x    frame=31773 fps=408 q=-0.0 size=N/A time=00:22:05.19 bitrate=N/A speed=  17x    frame=31975 fps=408 q=-0.0 size=N/A time=00:22:13.62 bitrate=N/A speed=  17x    frame=32214 fps=408 q=-0.0 size=N/A time=00:22:23.59 bitrate=N/A speed=  17x    frame=32448 fps=408 q=-0.0 size=N/A time=00:22:33.35 bitrate=N/A speed=  17x    frame=32654 fps=408 q=-0.0 size=N/A time=00:22:41.94 bitrate=N/A speed=  17x    frame=32885 fps=408 q=-0.0 size=N/A time=00:22:51.57 bitrate=N/A speed=  17x    frame=33121 fps=409 q=-0.0 size=N/A time=00:23:01.42 bitrate=N/A speed=  17x    frame=33351 fps=409 q=-0.0 size=N/A time=00:23:11.01 bitrate=N/A speed=17.1x    frame=33565 fps=409 q=-0.0 size=N/A time=00:23:19.94 bitrate=N/A speed=17.1x    frame=33789 fps=409 q=-0.0 size=N/A time=00:23:29.28 bitrate=N/A speed=17.1x    frame=34002 fps=409 q=-0.0 size=N/A time=00:23:38.16 bitrate=N/A speed=17.1x    frame=34224 fps=409 q=-0.0 size=N/A time=00:23:47.42 bitrate=N/A speed=17.1x    frame=34397 fps=409 q=-0.0 size=N/A time=00:23:54.64 bitrate=N/A speed=17.1x    frame=34569 fps=408 q=-0.0 size=N/A time=00:24:01.81 bitrate=N/A speed=  17x    [Parsed_ssim_10 @ 00000279ea35e6c0] SSIM Y:0.992923 (21.501481) U:0.994222 (22.382313) V:0.994309 (22.448260) All:0.993371 (21.785206)
[out#0/null @ 00000279e8ed0700] video:14858KiB audio:270436KiB subtitle:0KiB other streams:0KiB global headers:0KiB muxing overhead: unknown
frame=34578 fps=408 q=-0.0 Lsize=N/A time=00:24:02.19 bitrate=N/A speed=  17x    
